<?xml version="1.0" encoding="utf-8"?>
<!-- Generator: Adobe Illustrator 24.0.0, SVG Export Plug-In . SVG Version: 6.00 Build 0)  -->
<svg version="1.1" xmlns="http://www.w3.org/2000/svg" xmlns:xlink="http://www.w3.org/1999/xlink" x="0px" y="0px"
	 viewBox="0 0 1065.85 302.4" style="enable-background:new 0 0 1065.85 302.4;" xml:space="preserve">
<style type="text/css">
	.st0{fill:url(#SVGID_1_);}
	.st1{opacity:0.5;fill:#FFFFFF;}
	.st2{opacity:0.3;}
</style>
<g id="background">
</g>
<g id="objects">
	<g>
		<g id="energy_x5F_amount_2_">
			<g>
				<linearGradient id="SVGID_1_" gradientUnits="userSpaceOnUse" x1="625.4907" y1="233.5699" x2="625.4907" y2="84.4425">
					<stop  offset="0" style="stop-color:#6151FF"/>
					<stop  offset="0.1542" style="stop-color:#6256FF"/>
					<stop  offset="0.3464" style="stop-color:#6666FF"/>
					<stop  offset="0.5587" style="stop-color:#6C7FFF"/>
					<stop  offset="0.7839" style="stop-color:#74A2FF"/>
					<stop  offset="1" style="stop-color:#7DCBFF"/>
				</linearGradient>
				<polygon class="st0" points="1045.13,84.44 205.85,84.44 205.85,215.25 205.85,233.57 432.55,233.57 461.18,215.25 
					910.94,215.25 				"/>
				<polygon class="st1" points="1045.13,84.44 205.85,84.44 205.85,89.64 1039.81,89.64 				"/>
				<path d="M1045.13,84.44L1045.13,84.44 M1045.13,84.44l-134.2,130.8H461.18l-28.63,18.32h-226.7v-18.32V84.44H1045.13
					 M1065.85,77.29h-20.72H205.85h-11.18v7.16v130.8v18.32v7.16h11.18h226.7h4.63l3.27-2.1l25.35-16.23h445.13h6.03l3.31-3.23
					l134.2-130.8L1065.85,77.29L1065.85,77.29z M1045.14,77.29L1045.14,77.29L1045.14,77.29L1045.14,77.29z M1045.13,91.6
					L1045.13,91.6L1045.13,91.6L1045.13,91.6z"/>
				<polygon class="st2" points="910.94,205.49 461.18,205.49 432.55,223.81 205.85,223.81 205.85,233.57 432.55,233.57 
					461.18,215.25 910.94,215.25 920.95,205.49 				"/>
			</g>
		</g>
	</g>
</g>
</svg>
